<svg xmlns="http://www.w3.org/2000/svg" viewBox="0 0 392 303" xmlns:xlink="http://www.w3.org/1999/xlink">
  <defs>
    <path id="a" d="M0 0h143v143H0V0zm32 120h25v23H32v-23zM105 2h38v12h-38V2z"/>
    <path id="c" d="M0 0h143v143H0V0zm32 120h25v23H32v-23zM105 2h38v12h-38V2z"/>
    <path id="e" d="M0 0h143v143H0V0zm32 120h25v23H32v-23zM105 2h38v12h-38V2z"/>
    <path id="g" d="M0 0h143v143H0V0zm32 120h25v23H32v-23zM105 2h38v12h-38V2z"/>
  </defs>
  <g fill="none" fill-rule="evenodd">
    <text fill="#232C38" font-family="SourceSansPro-Semibold, Source Sans Pro" font-size="16" font-weight="500" transform="translate(-31 -5)">
      <tspan x="300.852" y="148">Internal Business </tspan> <tspan x="326.116" y="166">Processes</tspan>
    </text>
    <text fill="#232C38" font-family="SourceSansPro-Semibold, Source Sans Pro" font-size="16" font-weight="500" transform="translate(-31 -5)">
      <tspan x="180.852" y="289">Learning </tspan> <tspan x="178.748" y="307">&amp; Growth</tspan>
    </text>
    <text fill="#232C38" font-family="SourceSansPro-Semibold, Source Sans Pro" font-size="16" font-weight="500" transform="translate(-31 -5)">
      <tspan x="178.644" y="17">Financial</tspan>
    </text>
    <text fill="#232C38" font-family="SourceSansPro-Semibold, Source Sans Pro" font-size="16" font-weight="500" transform="translate(-31 -5)">
      <tspan x="31.092" y="156">Customer</tspan>
    </text>
    <text fill="#232C38" font-family="SourceSansPro-Semibold, Source Sans Pro" font-size="20" font-weight="500" transform="translate(-31 -5)">
      <tspan x="174.82" y="150">Vision &amp;</tspan> <tspan x="172.94" y="170">Strategy</tspan>
    </text>
    <g transform="translate(-8 -1)">
      <mask id="b" fill="#fff">
        <use xlink:href="#a"/>
      </mask>
      <path fill="#7ED321" d="M190 294c81.738 0 148-66.262 148-148S271.738-2 190-2 42 64.262 42 146s66.262 148 148 148zm0 2c-82.843 0-150-67.157-150-150S107.157-4 190-4s150 67.157 150 150-67.157 150-150 150z" mask="url(#b)"/>
      <path fill="#7ED321" d="M122.31 13.556c-.006.087 0 .167-.023.25l-1.667 5.536c-.166.552-.748.888-1.31.756-.56-.132-.878-.682-.712-1.234l.962-3.18-6.34 3.66c-.508.293-1.135.143-1.416-.344-.275-.477-.098-1.105.412-1.4l6.35-3.665-3.264-.755c-.56-.133-.878-.682-.706-1.224.156-.546.738-.882 1.3-.75l5.634 1.336c.01-.006.016.004.022.014.267.054.507.206.65.454.102.177.123.358.108.546zM43.04 122.778c-.065-.057-.13-.103-.182-.17l-3.337-4.723c-.33-.47-.234-1.137.21-1.498.45-.36 1.08-.272 1.416.2l1.914 2.716 1.02-7.25c.08-.58.584-.983 1.14-.905.545.077.93.603.848 1.186l-1.02 7.26 2.604-2.106c.45-.36 1.08-.272 1.4.197.335.46.24 1.124-.21 1.485l-4.52 3.618c0 .012-.013.01-.024.01-.207.176-.474.272-.758.232-.202-.03-.358-.123-.497-.252z"/>
    </g>
    <g transform="matrix(-1 0 0 1 375 -1)">
      <mask id="d" fill="#fff">
        <use xlink:href="#c"/>
      </mask>
      <path fill="#7ED321" d="M190 294c81.738 0 148-66.262 148-148S271.738-2 190-2 42 64.262 42 146s66.262 148 148 148zm0 2c-82.843 0-150-67.157-150-150S107.157-4 190-4s150 67.157 150 150-67.157 150-150 150z" mask="url(#d)"/>
      <path fill="#7ED321" d="M122.31 13.556c-.006.087 0 .167-.023.25l-1.667 5.536c-.166.552-.748.888-1.31.756-.56-.132-.878-.682-.712-1.234l.962-3.18-6.34 3.66c-.508.293-1.135.143-1.416-.344-.275-.477-.098-1.105.412-1.4l6.35-3.665-3.264-.755c-.56-.133-.878-.682-.706-1.224.156-.546.738-.882 1.3-.75l5.634 1.336c.01-.006.016.004.022.014.267.054.507.206.65.454.102.177.123.358.108.546zM43.04 122.778c-.065-.057-.13-.103-.182-.17l-3.337-4.723c-.33-.47-.234-1.137.21-1.498.45-.36 1.08-.272 1.416.2l1.914 2.716 1.02-7.25c.08-.58.584-.983 1.14-.905.545.077.93.603.848 1.186l-1.02 7.26 2.604-2.106c.45-.36 1.08-.272 1.4.197.335.46.24 1.124-.21 1.485l-4.52 3.618c0 .012-.013.01-.024.01-.207.176-.474.272-.758.232-.202-.03-.358-.123-.497-.252z"/>
    </g>
    <g transform="matrix(1 0 0 -1 -8 295)">
      <mask id="f" fill="#fff">
        <use xlink:href="#e"/>
      </mask>
      <path fill="#7ED321" d="M190 294c81.738 0 148-66.262 148-148S271.738-2 190-2 42 64.262 42 146s66.262 148 148 148zm0 2c-82.843 0-150-67.157-150-150S107.157-4 190-4s150 67.157 150 150-67.157 150-150 150z" mask="url(#f)"/>
      <path fill="#7ED321" d="M122.31 13.556c-.006.087 0 .167-.023.25l-1.667 5.536c-.166.552-.748.888-1.31.756-.56-.132-.878-.682-.712-1.234l.962-3.18-6.34 3.66c-.508.293-1.135.143-1.416-.344-.275-.477-.098-1.105.412-1.4l6.35-3.665-3.264-.755c-.56-.133-.878-.682-.706-1.224.156-.546.738-.882 1.3-.75l5.634 1.336c.01-.006.016.004.022.014.267.054.507.206.65.454.102.177.123.358.108.546zM43.04 122.778c-.065-.057-.13-.103-.182-.17l-3.337-4.723c-.33-.47-.234-1.137.21-1.498.45-.36 1.08-.272 1.416.2l1.914 2.716 1.02-7.25c.08-.58.584-.983 1.14-.905.545.077.93.603.848 1.186l-1.02 7.26 2.604-2.106c.45-.36 1.08-.272 1.4.197.335.46.24 1.124-.21 1.485l-4.52 3.618c0 .012-.013.01-.024.01-.207.176-.474.272-.758.232-.202-.03-.358-.123-.497-.252z"/>
    </g>
    <g transform="rotate(180 187.5 147.5)">
      <mask id="h" fill="#fff">
        <use xlink:href="#g"/>
      </mask>
      <path fill="#7ED321" d="M190 294c81.738 0 148-66.262 148-148S271.738-2 190-2 42 64.262 42 146s66.262 148 148 148zm0 2c-82.843 0-150-67.157-150-150S107.157-4 190-4s150 67.157 150 150-67.157 150-150 150z" mask="url(#h)"/>
      <path fill="#7ED321" d="M122.31 13.556c-.006.087 0 .167-.023.25l-1.667 5.536c-.166.552-.748.888-1.31.756-.56-.132-.878-.682-.712-1.234l.962-3.18-6.34 3.66c-.508.293-1.135.143-1.416-.344-.275-.477-.098-1.105.412-1.4l6.35-3.665-3.264-.755c-.56-.133-.878-.682-.706-1.224.156-.546.738-.882 1.3-.75l5.634 1.336c.01-.006.016.004.022.014.267.054.507.206.65.454.102.177.123.358.108.546zM43.04 122.778c-.065-.057-.13-.103-.182-.17l-3.337-4.723c-.33-.47-.234-1.137.21-1.498.45-.36 1.08-.272 1.416.2l1.914 2.716 1.02-7.25c.08-.58.584-.983 1.14-.905.545.077.93.603.848 1.186l-1.02 7.26 2.604-2.106c.45-.36 1.08-.272 1.4.197.335.46.24 1.124-.21 1.485l-4.52 3.618c0 .012-.013.01-.024.01-.207.176-.474.272-.758.232-.202-.03-.358-.123-.497-.252z"/>
    </g>
  </g>
</svg>
